<?xml version="1.0" encoding="utf-8"?>
<!-- Generator: Adobe Illustrator 26.0.2, SVG Export Plug-In . SVG Version: 6.00 Build 0)  -->
<svg version="1.1" id="Layer_1" xmlns="http://www.w3.org/2000/svg" xmlns:xlink="http://www.w3.org/1999/xlink" x="0px" y="0px"
	 viewBox="0 0 160 160" style="enable-background:new 0 0 160 160;" xml:space="preserve">
<style type="text/css">
	.st0{fill:#4DBEEE;}
	.st1{fill:#8DC63F;}
	.st2{fill:#232960;}
</style>
<g>
	<g>
		<path class="st0" d="M57.58,124.27c0,1.05,0.84,1.9,1.89,1.9h0.13c35.25,0,64.68-25.03,71.46-58.31
			c-3.73,0.5-7.48-0.52-10.41-2.74C107.95,77.52,88.94,84.27,72,83.3c-0.56-0.03-1.13-0.07-1.69-0.13
			C62.3,94.86,57.6,109.02,57.58,124.27z"/>
		<path class="st1" d="M18.15,52.03c0,0.63,0.25,1.24,0.75,1.69c4.48,4.03,9.32,7.41,14.41,10.13
			c18.77-24.98,53.52-32.08,80.65-16.09c-24.5-12.22-54.69-6.8-73.38,13.98c-1.05,1.16-2.07,2.36-3.04,3.62
			c-0.27,0.35-0.4,0.76-0.4,1.17c0,0.58,0.26,1.16,0.75,1.54c10.23,7.89,22.13,12.07,34.12,12.75c16.94,0.97,34.02-5.05,46.71-17.44
			c-1.08-1.15-1.97-2.51-2.62-4.02c-0.88-2.04-1.24-4.17-1.14-6.25c0.16-3.59,1.69-7.02,4.27-9.55
			C89.47,18.54,45.01,21.41,18.74,50.5C18.34,50.93,18.15,51.48,18.15,52.03z"/>
		<circle class="st2" cx="128.92" cy="53.75" r="12.09"/>
	</g>
	<g>
		<g>
			<path class="st2" d="M98.34,130.69c0.13,0.13,0.22,0.25,0.26,0.37c0.12,0.31,0.02,0.74-0.28,1.29c-0.3,0.54-0.64,0.88-1,1.02
				c-0.32,0.12-0.65,0.05-0.98-0.22c-0.33-0.27-0.6-0.67-0.8-1.21c-0.22-0.6-0.41-1.5-0.56-2.71l-0.12-0.87l-0.68,0.25
				c-0.28,0.11-0.49,0.24-0.63,0.4c0.03-0.39,0.08-0.65,0.15-0.78c0.07-0.12,0.23-0.23,0.47-0.32l0.61-0.23l-0.04-0.36
				c-0.06-0.54-0.04-0.93,0.06-1.18s0.33-0.44,0.67-0.57c0.04-0.02,0.11-0.04,0.2-0.06c-0.09,0.4-0.11,1.02-0.05,1.86l2.13-0.8
				c0.37-0.14,0.64-0.3,0.79-0.49c0.06,0.35,0.05,0.6-0.03,0.74c-0.07,0.14-0.26,0.27-0.57,0.38l-2.26,0.85
				c0.01,0.12,0.02,0.2,0.03,0.26c0.17,1.44,0.38,2.49,0.63,3.16c0.28,0.74,0.64,1.03,1.09,0.86c0.23-0.09,0.44-0.3,0.62-0.63
				C98.24,131.36,98.34,131.03,98.34,130.69z"/>
			<path class="st2" d="M101.29,131.49c-0.13,0.18-0.25,0.3-0.36,0.35c-0.27,0.13-0.46,0.05-0.6-0.23
				c-0.07-0.14-0.19-0.52-0.36-1.12l-0.35-1.24c-0.2-0.74-0.38-1.28-0.54-1.6c-0.08-0.18-0.2-0.31-0.34-0.39
				c0.22-0.24,0.42-0.4,0.59-0.48c0.18-0.09,0.34,0.01,0.47,0.28c0.08,0.17,0.23,0.65,0.44,1.43l0.42,1.45
				c-0.05-1.36,0.03-2.47,0.23-3.33c0.2-0.86,0.5-1.39,0.91-1.58c0.14-0.07,0.29-0.08,0.44-0.03c0.15,0.05,0.26,0.14,0.32,0.28
				c0.1,0.22,0.04,0.6-0.18,1.14c-0.21-0.2-0.41-0.25-0.59-0.17c-0.33,0.16-0.55,0.77-0.67,1.84c-0.07,0.67-0.09,1.33-0.07,1.99
				c0.03,0.66,0.1,1.11,0.21,1.34L101.29,131.49z"/>
			<path class="st2" d="M103.06,122.97l0.05-0.03c0.16-0.1,0.34-0.34,0.54-0.71c0.2-0.37,0.33-0.71,0.4-1.01
				c0.13,0.47,0.13,0.92,0.01,1.36c-0.18,0.66-0.35,1.04-0.49,1.12c-0.1,0.06-0.19,0.01-0.27-0.13
				C103.18,123.37,103.1,123.17,103.06,122.97z M107.67,123.29c0.11,1.49,0.07,2.73-0.12,3.73c-0.19,0.99-0.52,1.62-0.98,1.88
				c-0.28,0.16-0.56,0.18-0.86,0.06c-0.29-0.12-0.54-0.35-0.75-0.7c-0.08-0.13-0.17-0.36-0.29-0.68l-0.2-0.53
				c-0.28-0.77-0.51-1.3-0.67-1.58c-0.1-0.17-0.22-0.28-0.36-0.34c0.27-0.27,0.45-0.44,0.53-0.48c0.18-0.11,0.36-0.01,0.54,0.3
				c0.13,0.23,0.28,0.57,0.46,1.04l0.35,0.95c0.17,0.46,0.29,0.75,0.36,0.87c0.21,0.37,0.45,0.47,0.71,0.32
				c0.31-0.18,0.55-0.73,0.7-1.65c0.16-0.92,0.21-1.99,0.14-3.23L107.67,123.29z"/>
			<path class="st2" d="M112.14,120.05c0.21,1.53,0.23,2.85,0.04,3.94c-0.19,1.1-0.56,1.83-1.11,2.21
				c-0.46,0.31-0.95,0.38-1.49,0.21c-0.54-0.18-1.01-0.56-1.42-1.15c-0.54-0.78-0.76-1.63-0.67-2.54c0.09-0.92,0.46-1.6,1.12-2.05
				c0.27-0.18,0.53-0.27,0.78-0.27s0.45,0.1,0.58,0.29c0.21,0.31,0.15,0.69-0.18,1.15c-0.02-0.08-0.06-0.16-0.1-0.22
				c-0.31-0.45-0.67-0.54-1.08-0.26c-0.35,0.24-0.52,0.7-0.49,1.37c0.03,0.67,0.23,1.28,0.61,1.84c0.31,0.45,0.66,0.75,1.06,0.9
				c0.39,0.15,0.75,0.11,1.06-0.1c0.87-0.6,1.15-2.37,0.84-5.31L112.14,120.05z"/>
			<path class="st2" d="M115.3,117.71c0.06,0.06,0.11,0.11,0.15,0.16c0.63,0.76,0.96,1.6,1,2.52c0.04,0.92-0.23,1.63-0.81,2.11
				c-0.44,0.37-0.94,0.5-1.5,0.4c-0.56-0.1-1.06-0.42-1.51-0.96c-0.51-0.61-0.77-1.29-0.78-2.04c-0.01-0.75,0.22-1.33,0.71-1.73
				c0.08-0.06,0.16-0.12,0.27-0.16c-0.15-0.07-0.26-0.15-0.33-0.23c-0.1-0.13-0.17-0.28-0.19-0.45c0.58-0.4,1.3-0.44,2.16-0.14
				c0.61-0.01,1.12-0.18,1.51-0.51c0.26-0.21,0.45-0.55,0.58-1.01l0.44,0.2c-0.11,0.58-0.35,1.03-0.71,1.33
				C116.04,117.4,115.71,117.57,115.3,117.71z M114.27,118c-0.24,0.09-0.49,0.12-0.77,0.11c-0.14,0.07-0.24,0.13-0.32,0.19
				c-0.37,0.31-0.54,0.79-0.49,1.43c0.04,0.64,0.28,1.22,0.71,1.73c0.31,0.37,0.65,0.6,1.03,0.7s0.7,0.03,0.97-0.2
				c0.37-0.31,0.51-0.8,0.4-1.47c-0.1-0.67-0.41-1.31-0.93-1.93C114.7,118.34,114.5,118.16,114.27,118z"/>
			<path class="st2" d="M119,116.78c-1.12-2.52-1.4-4.06-0.83-4.64c0.44-0.45,1.2-0.16,2.27,0.89l0.45,0.43
				c0.51,0.5,0.89,0.82,1.13,0.97c0.24,0.15,0.42,0.16,0.53,0.05c0.17-0.18,0.2-0.54,0.09-1.09c-0.11-0.55-0.43-1.57-0.94-3.06
				l0.43-0.08c0.57,1.44,0.93,2.58,1.07,3.41c0.14,0.84,0.07,1.39-0.2,1.68c-0.25,0.26-0.58,0.3-0.99,0.11
				c-0.4-0.19-0.97-0.64-1.71-1.36l-0.32-0.3c-0.4-0.39-0.7-0.64-0.91-0.76c-0.2-0.12-0.36-0.12-0.46-0.01
				c-0.26,0.27-0.05,1.33,0.65,3.19c0.17,0.45,0.28,0.75,0.33,0.88c0.17,0.48,0.33,0.79,0.48,0.93c0.06,0.06,0.13,0.1,0.21,0.12
				c-0.06,0.18-0.13,0.31-0.21,0.39c-0.2,0.21-0.44,0.18-0.71-0.09c-0.08-0.08-0.4-0.45-0.98-1.11l-0.73-0.84
				c-0.31-0.36-0.55-0.63-0.74-0.81c-0.26-0.25-0.51-0.4-0.76-0.45c0.03-0.06,0.07-0.16,0.12-0.3c0.07-0.18,0.14-0.31,0.22-0.38
				c0.16-0.16,0.37-0.1,0.65,0.17c0.15,0.14,0.38,0.4,0.71,0.78c0.07,0.08,0.14,0.16,0.2,0.24L119,116.78z"/>
			<path class="st2" d="M125.23,109.47c0.18,0.05,0.32,0.11,0.41,0.19c0.26,0.21,0.39,0.63,0.4,1.25c0.01,0.62-0.11,1.09-0.36,1.39
				c-0.22,0.27-0.54,0.37-0.96,0.3c-0.42-0.07-0.85-0.28-1.29-0.65c-0.49-0.41-1.11-1.1-1.84-2.07l-0.54-0.7l-0.46,0.56
				c-0.19,0.23-0.31,0.45-0.34,0.66c-0.17-0.36-0.26-0.61-0.26-0.75c0-0.14,0.08-0.31,0.25-0.52l0.41-0.5l-0.22-0.29
				c-0.32-0.44-0.5-0.79-0.53-1.05c-0.03-0.27,0.06-0.54,0.3-0.82c0.03-0.03,0.07-0.08,0.14-0.15c0.12,0.39,0.42,0.93,0.88,1.63
				l1.45-1.75c0.25-0.31,0.4-0.58,0.44-0.82c0.22,0.28,0.34,0.5,0.35,0.66c0.01,0.16-0.09,0.36-0.3,0.61l-1.54,1.86
				c0.07,0.09,0.12,0.16,0.15,0.21c0.86,1.16,1.57,1.97,2.12,2.42c0.61,0.5,1.07,0.57,1.37,0.2c0.16-0.19,0.23-0.48,0.23-0.86
				C125.48,110.1,125.39,109.77,125.23,109.47z"/>
			<path class="st2" d="M128.17,108.8c-0.03,0.22-0.07,0.38-0.14,0.48c-0.17,0.24-0.38,0.27-0.63,0.09
				c-0.13-0.09-0.41-0.36-0.86-0.81l-0.91-0.92c-0.54-0.55-0.95-0.93-1.25-1.15c-0.16-0.12-0.32-0.17-0.49-0.18
				c0.08-0.32,0.17-0.55,0.28-0.7c0.12-0.16,0.3-0.16,0.54,0.02c0.15,0.11,0.51,0.46,1.07,1.04l1.06,1.07
				c-0.7-1.17-1.16-2.18-1.4-3.03c-0.24-0.85-0.23-1.46,0.03-1.82c0.09-0.13,0.22-0.21,0.37-0.24c0.15-0.03,0.29,0,0.42,0.09
				c0.19,0.14,0.32,0.5,0.39,1.09c-0.28-0.07-0.48-0.02-0.6,0.14c-0.21,0.29-0.11,0.94,0.3,1.94c0.26,0.62,0.56,1.21,0.9,1.78
				c0.34,0.57,0.62,0.92,0.83,1.08L128.17,108.8z"/>
			<path class="st2" d="M130.12,100.12c0.63,0.84,1.07,1.63,1.34,2.36c0.27,0.73,0.3,1.26,0.1,1.59c-0.16,0.27-0.41,0.42-0.73,0.45
				c-0.33,0.03-0.67-0.06-1.03-0.28c-0.46-0.28-1.23-0.92-2.3-1.93c-0.29-0.27-0.48-0.43-0.56-0.49s-0.2-0.09-0.33-0.1l0.3-0.51
				c0.13-0.22,0.3-0.27,0.5-0.15c0.12,0.08,0.44,0.36,0.95,0.87c0.15,0.15,0.26,0.25,0.32,0.31l0.23,0.22
				c0.47,0.43,0.84,0.73,1.12,0.9c0.43,0.26,0.72,0.27,0.87,0.02c0.25-0.41-0.04-1.29-0.86-2.65c-0.67-1.11-1.21-1.79-1.63-2.04
				c-0.06-0.04-0.12-0.06-0.2-0.06c0.06-0.24,0.12-0.43,0.21-0.57c0.13-0.22,0.27-0.28,0.43-0.18c0.04,0.02,0.09,0.07,0.15,0.13
				c0.04,0.04,0.13,0.12,0.28,0.26c0.03,0.02,0.13,0.12,0.31,0.29c0.12,0.12,0.22,0.21,0.3,0.28l0.19,0.16
				c0.43,0.37,0.86,0.68,1.27,0.94c0.64,0.39,1.04,0.45,1.2,0.19c0.35-0.57-0.17-1.88-1.55-3.93l0.41-0.18
				c1.69,2.4,2.28,4.01,1.78,4.85c-0.34,0.56-1.09,0.49-2.25-0.21C130.7,100.52,130.43,100.34,130.12,100.12z"/>
			<path class="st2" d="M133.65,96.31c-1.86-2.03-2.61-3.42-2.25-4.15c0.28-0.57,1.09-0.53,2.44,0.13l0.56,0.26
				c0.64,0.31,1.1,0.5,1.38,0.57c0.27,0.06,0.45,0.02,0.52-0.12c0.11-0.22,0.02-0.58-0.26-1.06c-0.28-0.49-0.9-1.36-1.86-2.61
				l0.38-0.22c1,1.19,1.69,2.15,2.09,2.9c0.4,0.75,0.51,1.3,0.34,1.66c-0.16,0.33-0.46,0.47-0.9,0.42c-0.44-0.05-1.13-0.3-2.05-0.75
				l-0.4-0.19c-0.5-0.24-0.87-0.39-1.1-0.43c-0.23-0.05-0.38,0-0.44,0.13c-0.17,0.34,0.38,1.28,1.62,2.82
				c0.31,0.38,0.5,0.62,0.59,0.73c0.31,0.4,0.56,0.64,0.75,0.73c0.07,0.04,0.15,0.05,0.24,0.05c0,0.19-0.02,0.33-0.07,0.43
				c-0.13,0.26-0.36,0.31-0.7,0.14c-0.1-0.05-0.52-0.3-1.28-0.74l-0.96-0.57c-0.4-0.24-0.72-0.42-0.96-0.54
				c-0.32-0.16-0.61-0.22-0.86-0.19c0.01-0.06,0.01-0.17,0.02-0.32c0.01-0.19,0.04-0.34,0.08-0.43c0.1-0.2,0.32-0.22,0.67-0.05
				c0.18,0.09,0.49,0.26,0.92,0.52c0.09,0.06,0.18,0.11,0.27,0.16L133.65,96.31z"/>
			<path class="st2" d="M136.41,86.79c0.54,0.5,0.95,1.09,1.24,1.77c0.29,0.68,0.36,1.21,0.21,1.6c-0.11,0.29-0.32,0.48-0.63,0.58
				c-0.31,0.09-0.65,0.07-1.02-0.08c-0.88-0.34-1.58-0.93-2.11-1.78c-0.53-0.85-0.67-1.6-0.41-2.27c0.13-0.34,0.39-0.67,0.77-0.97
				c-0.28-0.17-0.45-0.32-0.49-0.45c-0.04-0.13-0.01-0.42,0.1-0.85c0.42,0.4,1.53,1.06,3.34,1.97l0.47,0.24
				c-0.38-1.46-0.88-2.67-1.49-3.62l0.38-0.24c0.69,0.94,1.29,2.33,1.82,4.17c0.12,0.06,0.21,0.1,0.27,0.12
				c0.78,0.35,1.34,0.64,1.68,0.89c0.34,0.25,0.63,0.57,0.87,0.96c0.46,0.77,0.55,1.53,0.27,2.28c-0.15,0.4-0.39,0.68-0.71,0.84
				c-0.32,0.16-0.66,0.18-1.01,0.04c-0.35-0.13-0.61-0.36-0.79-0.67s-0.34-0.84-0.49-1.58c-0.09-0.49-0.25-1.18-0.46-2.09
				L136.41,86.79z M135.25,86.11c-0.57,0.18-0.94,0.48-1.1,0.89c-0.15,0.4,0,0.88,0.45,1.46c0.45,0.58,1.01,0.99,1.68,1.25
				c0.47,0.18,0.76,0.13,0.87-0.17c0.11-0.28-0.03-0.77-0.41-1.45C136.37,87.41,135.87,86.75,135.25,86.11z M138.85,87.94
				c0.05,0.2,0.14,0.59,0.28,1.19c0.26,1.16,0.63,1.84,1.11,2.02c0.21,0.08,0.41,0.07,0.61-0.02c0.19-0.1,0.34-0.26,0.43-0.5
				C141.66,89.6,140.86,88.71,138.85,87.94z"/>
		</g>
		<g>
			<path class="st2" d="M121.27,131.51l0.2-0.25c0.13-0.17,0.23-0.28,0.31-0.34c0.19-0.16,0.39-0.11,0.58,0.13
				c0.08,0.1,0.16,0.22,0.24,0.37l0.17,0.31l-0.13,0.16c-0.18,0.22-0.29,0.35-0.33,0.39c-0.16,0.13-0.32,0.09-0.48-0.1
				c-0.04-0.05-0.08-0.11-0.11-0.17l-0.07-0.12c-0.03-0.05-0.06-0.1-0.1-0.15C121.47,131.62,121.37,131.54,121.27,131.51z"/>
			<path class="st2" d="M126.42,122.99c0.42,1.49,0.62,2.79,0.58,3.9c-0.03,1.11-0.3,1.89-0.79,2.34c-0.41,0.37-0.89,0.51-1.45,0.41
				c-0.56-0.1-1.08-0.41-1.56-0.94c-0.64-0.7-0.98-1.51-1.02-2.43c-0.04-0.92,0.24-1.65,0.83-2.19c0.24-0.22,0.49-0.34,0.74-0.38
				c0.25-0.03,0.46,0.04,0.61,0.21c0.25,0.28,0.25,0.66-0.02,1.17c-0.03-0.08-0.08-0.15-0.13-0.2c-0.37-0.41-0.74-0.44-1.1-0.11
				c-0.32,0.29-0.41,0.76-0.29,1.43c0.12,0.66,0.41,1.24,0.86,1.74c0.37,0.4,0.76,0.65,1.17,0.75c0.41,0.09,0.76,0.01,1.04-0.25
				c0.78-0.71,0.81-2.51,0.1-5.38L126.42,122.99z"/>
			<path class="st2" d="M129.26,120.29c0.07,0.05,0.12,0.1,0.17,0.14c0.72,0.67,1.16,1.46,1.32,2.37c0.16,0.91-0.02,1.64-0.53,2.2
				c-0.39,0.42-0.87,0.62-1.44,0.59c-0.57-0.03-1.11-0.28-1.62-0.76c-0.58-0.54-0.93-1.18-1.04-1.92c-0.11-0.74,0.05-1.34,0.48-1.81
				c0.07-0.07,0.15-0.14,0.24-0.2c-0.16-0.05-0.28-0.11-0.36-0.18c-0.12-0.11-0.2-0.25-0.25-0.42c0.52-0.47,1.23-0.61,2.12-0.42
				c0.61-0.09,1.08-0.32,1.43-0.7c0.23-0.25,0.37-0.6,0.44-1.07l0.46,0.14c-0.03,0.59-0.21,1.06-0.54,1.41
				C129.95,119.89,129.65,120.1,129.26,120.29z M128.28,120.71c-0.22,0.12-0.47,0.19-0.75,0.21c-0.13,0.08-0.22,0.16-0.29,0.23
				c-0.33,0.36-0.43,0.85-0.31,1.48c0.13,0.63,0.44,1.17,0.93,1.63c0.36,0.33,0.72,0.51,1.11,0.56c0.38,0.04,0.7-0.07,0.94-0.33
				c0.33-0.36,0.4-0.86,0.21-1.51c-0.19-0.65-0.58-1.25-1.17-1.8C128.74,120.99,128.52,120.84,128.28,120.71z"/>
			<path class="st2" d="M132.89,118.94c-1.45-2.38-1.94-3.88-1.46-4.51c0.21-0.28,0.55-0.24,1.03,0.12c0.2,0.15,0.62,0.56,1.25,1.21
				l1.08,1.13c-0.7-1.15-1.19-2.17-1.48-3.07c-0.28-0.89-0.31-1.5-0.07-1.81c0.26-0.35,0.63-0.34,1.12,0.02
				c0.17,0.13,0.53,0.48,1.08,1.05l0.56,0.58c0.34,0.35,0.6,0.6,0.78,0.74c0.33,0.24,0.56,0.27,0.71,0.07
				c0.33-0.44-0.13-1.84-1.39-4.21l0.41-0.15c1.56,2.72,2.06,4.45,1.5,5.2c-0.36,0.48-0.9,0.44-1.64-0.11
				c-0.25-0.18-0.61-0.52-1.08-1.02l-0.49-0.52c-0.33-0.35-0.55-0.56-0.64-0.63c-0.12-0.09-0.21-0.08-0.29,0.02
				c-0.19,0.25,0.07,1.13,0.76,2.65c0.63,1.38,1.02,2.13,1.18,2.24c0.02,0.01,0.05,0.03,0.1,0.05c-0.02,0.04-0.04,0.11-0.07,0.21
				c-0.01,0.04-0.04,0.1-0.1,0.17c-0.16,0.21-0.36,0.23-0.6,0.05c-0.07-0.06-0.27-0.26-0.59-0.6c-0.11-0.12-0.24-0.26-0.37-0.4
				l-0.76-0.79c-0.54-0.57-0.88-0.91-1.01-1c-0.18-0.14-0.32-0.15-0.4-0.04c-0.19,0.25,0.07,1.01,0.76,2.28
				c0.69,1.26,1.13,1.97,1.33,2.12c0.06,0.04,0.13,0.07,0.21,0.07c-0.03,0.18-0.08,0.32-0.16,0.42c-0.18,0.24-0.42,0.24-0.73,0.02
				c-0.04-0.03-0.41-0.36-1.11-0.99l-0.81-0.73c-0.28-0.26-0.56-0.48-0.82-0.68c-0.33-0.25-0.61-0.37-0.85-0.37
				c0.08-0.35,0.17-0.58,0.25-0.69c0.15-0.2,0.37-0.2,0.65,0.01c0.1,0.08,0.45,0.38,1.06,0.92L132.89,118.94z"/>
		</g>
	</g>
</g>
</svg>
